<svg width="445" height="377" viewBox="0 0 445 377" fill="none" xmlns="http://www.w3.org/2000/svg">
<g clip-path="url(#clip0_43_140)">
<path d="M228.556 28.1685C228.556 28.1685 177.216 25.9143 148.215 72.1843C119.223 118.464 98.0394 98.1468 65.5521 133.512C33.0649 168.876 39.805 243.084 43.5506 273.324C47.2961 303.563 60.4489 337.416 60.4489 337.416H405.455C405.455 337.416 440.696 192.488 410.462 138.752C380.218 85.0066 314.897 82.3381 296.872 55.2485C278.847 28.1589 228.556 28.1589 228.556 28.1589V28.1685Z" fill="#E5E5EC"/>
<path d="M8.23255 335.46C8.23255 335.46 106.802 327.455 432.589 337.791C440.128 338.032 460.83 359.245 422.71 365.526C384.599 371.808 351.987 365.526 296.834 374.351C241.671 383.175 186.315 367.135 133.762 367.135C81.2085 367.135 78.5028 364.467 53.6126 361.769C13.4513 357.405 -14.6934 339.651 8.23255 335.46Z" fill="#DAD7EB"/>
<path d="M342.608 322.426C336.985 321.674 332.306 335.922 332.306 335.922C332.306 335.922 332.286 335.894 332.258 335.865C331.372 333.244 330.717 329.979 330.245 326.51C331.295 325.711 336.947 321.405 338.304 319.622C339.806 317.648 339.71 312.879 336.899 312.6C334.087 312.32 330.062 324.035 330.062 324.035C330.062 324.035 330.004 323.938 329.918 323.794C329.61 320.99 329.407 318.139 329.273 315.451C330.717 313.891 334.116 310.124 334.848 308.284C335.782 305.943 335.878 303.602 333.817 303.602C332.248 303.602 330.053 308.332 329.09 310.586C329.032 308.351 329.013 306.396 329.013 304.893C329.841 303.072 331.584 299.122 331.94 297.138C332.412 294.517 332.412 290.481 330.63 290.019C328.849 289.546 326.885 291.897 326.23 296.107C325.729 299.305 327.328 303.245 328.136 304.97C328.136 306.444 328.136 308.342 328.194 310.509C327.251 307.792 324.786 301.511 322.013 300.606C320.395 300.086 318.643 301.82 319.394 305.008C320.145 308.197 327.26 314.382 327.26 314.382L328.406 315.885C328.512 317.927 328.666 320.056 328.868 322.185C327.145 319.68 323.775 315.268 320.241 313.255C317.795 311.858 311.72 314.661 315.282 319.247C318.296 323.139 326.827 325.749 329.359 326.453C329.744 329.295 330.255 332.021 330.91 334.391C327.992 331.356 321.194 324.94 316.592 325.807C310.603 326.934 309.476 332.743 314.714 335.181C319.952 337.618 332.315 337.801 332.315 337.801C332.315 337.801 339.806 334.429 342.618 332.175C345.43 329.93 348.241 323.177 342.618 322.435L342.608 322.426Z" fill="#A7A3D1"/>
<path d="M12.4981 269.441C12.4981 269.441 10.2257 278.776 16.6384 294.016C23.0511 309.257 48.0761 325.826 48.0761 325.826C48.0761 325.826 49.5782 308.178 40.9894 290.269C32.4006 272.36 12.4981 269.432 12.4981 269.432V269.441Z" fill="url(#paint0_linear_43_140)"/>
<path d="M48.2302 276.271C48.2302 276.271 43.0981 281.04 40.8835 292.899C38.6689 304.748 47.248 324.892 47.248 324.892C47.248 324.892 55.2399 314.748 57.2041 300.394C59.1684 286.04 48.2205 276.262 48.2205 276.262L48.2302 276.271Z" fill="url(#paint1_linear_43_140)"/>
<path d="M1.10728 310.471C1.10728 310.471 4.30401 316.703 15.0978 322.06C25.8916 327.416 47.6043 324.632 47.6043 324.632C47.6043 324.632 40.0265 314.179 26.7485 308.38C13.4802 302.59 1.09766 310.471 1.09766 310.471H1.10728Z" fill="url(#paint2_linear_43_140)"/>
<path d="M26.6137 335.46H86.1384C86.1384 335.46 85.291 328.013 77.7999 323.119C70.3088 318.226 61.7104 323.119 61.7104 323.119C61.7104 323.119 57.5796 312.734 42.347 312.734C27.1144 312.734 24.871 324.102 24.871 324.102C24.871 324.102 10.6397 320.721 8.63696 335.47H26.6137V335.46Z" fill="url(#paint3_linear_43_140)"/>
<path d="M240.727 337.435H300.252C300.252 337.435 299.404 329.988 291.913 325.094C284.422 320.2 275.824 325.094 275.824 325.094C275.824 325.094 271.693 314.709 256.46 314.709C241.228 314.709 238.984 326.077 238.984 326.077C238.984 326.077 224.753 322.695 222.75 337.444H240.727V337.435Z" fill="url(#paint4_linear_43_140)"/>
<path d="M393.949 324.979C393.949 324.979 392.273 317.561 392.63 312.031C392.986 306.502 399.408 305.76 399.562 301.319C399.716 296.878 398.137 291.213 403.462 288.121C408.787 285.028 404.627 282.061 407.862 276.724C411.097 271.397 414.891 273.083 416.855 275.077C418.82 277.071 414.198 286.319 416.47 291.136C418.743 295.953 411.406 304.796 412.243 306.791C413.081 308.785 416.018 312.407 415.652 318.226C415.286 324.044 410.991 327.291 410.991 327.291L393.949 324.988V324.979Z" fill="url(#paint5_linear_43_140)"/>
<path d="M399.639 322.464C399.639 322.464 400.554 314.921 402.759 309.825C404.964 304.739 411.252 306.203 412.898 302.07C414.535 297.937 414.959 292.07 421.015 290.953C427.071 289.835 424.154 285.635 428.997 281.705C433.84 277.774 436.835 280.645 438.019 283.188C439.194 285.732 431.732 292.88 432.252 298.178C432.772 303.477 422.893 309.334 423.008 311.492C423.124 313.65 424.674 318.052 422.373 323.408C420.071 328.765 414.93 330.374 414.93 330.374L399.659 322.464H399.639Z" fill="url(#paint6_linear_43_140)"/>
<path d="M367.855 337.791H427.38C427.38 337.791 426.532 330.345 419.041 325.451C411.55 320.557 402.952 325.451 402.952 325.451C402.952 325.451 398.821 315.066 383.588 315.066C368.356 315.066 366.112 326.433 366.112 326.433C366.112 326.433 351.881 323.052 349.878 337.801H367.855V337.791Z" fill="url(#paint7_linear_43_140)"/>
<path d="M166.519 308.486C166.519 308.486 169.138 308.862 175.319 314.854C181.501 320.846 181.279 327.782 181.279 327.782C181.279 327.782 183.369 313.544 191.053 308.486C191.053 308.486 195.174 318.418 191.053 330.036C191.053 330.036 197.985 320.104 210.907 318.042C210.907 318.042 209.973 330.306 200.046 337.762H171.208C171.208 337.762 159.413 325.73 166.528 308.486H166.519Z" fill="#A7A3D1"/>
<path d="M130.305 317.811C124.682 317.06 120.002 331.298 120.002 331.298C120.002 331.298 119.983 331.27 119.954 331.241C119.068 328.62 118.414 325.355 117.942 321.886C118.991 321.087 124.644 316.781 126.001 314.998C127.503 313.024 127.407 308.255 124.595 307.976C121.784 307.696 117.759 319.411 117.759 319.411C117.759 319.411 117.701 319.314 117.615 319.17C117.306 316.366 117.104 313.515 116.969 310.837C118.414 309.276 121.813 305.509 122.544 303.669C123.478 301.328 123.575 298.987 121.514 298.987C119.945 298.987 117.749 303.718 116.786 305.972C116.729 303.737 116.709 301.781 116.709 300.278C117.538 298.458 119.28 294.508 119.637 292.523C120.108 289.903 120.108 285.867 118.327 285.404C116.546 284.932 114.582 287.283 113.927 291.493C113.426 294.691 115.024 298.631 115.833 300.355C115.833 301.829 115.833 303.727 115.891 305.895C114.947 303.178 112.482 296.897 109.709 295.991C108.092 295.471 106.339 297.205 107.09 300.394C107.841 303.583 114.957 309.767 114.957 309.767L116.103 311.27C116.209 313.313 116.363 315.442 116.565 317.571C114.841 315.066 111.471 310.654 107.938 308.64C105.492 307.243 99.4163 310.047 102.979 314.632C105.993 318.524 114.524 321.135 117.056 321.838C117.441 324.68 117.952 327.406 118.606 329.776C115.689 326.742 108.891 320.326 104.288 321.193C98.2994 322.32 97.1728 328.129 102.411 330.566C107.649 333.004 120.012 333.187 120.012 333.187C120.012 333.187 127.503 329.815 130.315 327.561C133.126 325.316 135.938 318.563 130.315 317.821L130.305 317.811Z" fill="#E7B142"/>
<path d="M133.213 61.7801C133.213 60.1424 147.261 0 220.122 0C269.132 0 312.914 32.0316 312.914 78.1186C312.914 110.15 289.063 129.764 257.703 143.164C246.591 148.068 246.273 157.22 246.273 168.009V186.313H192.362V150.688C192.362 136.305 193.017 124.543 207.72 115.063C227.651 102.318 246.273 101.335 246.273 78.1282C246.273 62.4351 234.507 51.3276 219.804 51.3276C196.281 51.3276 184.842 70.9416 181.251 84.997L133.223 61.7897L133.213 61.7801ZM256.711 242.217C256.711 262.804 240.053 279.479 219.14 279.479C198.226 279.479 181.896 262.804 181.896 242.217C181.896 221.63 198.553 204.627 219.14 204.627C239.726 204.627 256.711 221.293 256.711 242.217Z" fill="url(#paint8_linear_43_140)"/>
<path opacity="0.47" d="M132.346 72.4156C132.346 70.8838 146.915 6.04993 215.047 6.04993C260.88 6.04993 301.812 36.0007 301.812 79.1013C301.812 109.062 279.511 127.394 250.182 139.928C239.793 144.513 239.495 153.068 239.495 163.154V180.273H189.088V146.95C189.088 133.502 189.695 122.5 203.445 113.628C222.086 101.702 239.495 100.786 239.495 79.082C239.495 64.4101 228.499 54.0155 214.749 54.0155C192.757 54.0155 180.625 80.9509 177.264 94.1007L132.356 72.3963L132.346 72.4156ZM258.049 238.007C258.049 257.264 242.47 272.852 222.914 272.852C203.358 272.852 188.087 257.264 188.087 238.007C188.087 218.749 203.666 202.854 222.914 202.854C242.162 202.854 258.049 218.441 258.049 238.007Z" stroke="white" stroke-width="0.963357" stroke-miterlimit="10"/>
<path d="M70.9154 83.6193C70.7902 83.2725 69.2881 69.5543 84.6459 64.1403C94.9775 60.4988 106.58 63.9958 109.998 73.7064C112.377 80.4595 108.804 86.3649 103.191 91.5189C101.217 93.3781 101.823 95.3338 102.623 97.6073L103.98 101.461L92.6185 105.468L89.9706 97.9637C88.9018 94.9291 88.17 92.4051 90.5579 89.3128C93.8124 85.1414 97.6639 83.5519 95.9404 78.6677C94.7753 75.3634 91.4726 73.8894 88.3722 74.9877C83.4134 76.7313 82.4602 81.7215 82.749 84.9488L70.9057 83.629L70.9154 83.6193ZM110.335 112.472C111.866 116.807 109.594 121.566 105.184 123.117C100.851 124.649 96.0944 122.375 94.5731 118.03C93.0229 113.618 95.2952 108.869 99.6281 107.337C104.038 105.786 108.785 108.06 110.335 112.472Z" fill="url(#paint9_linear_43_140)"/>
<path d="M333.355 90.9505C333.48 90.6037 341.087 79.0916 356.358 84.7465C366.632 88.5517 373.314 98.6574 369.742 108.32C367.258 115.034 360.739 117.289 353.133 117.664C350.427 117.828 349.647 119.726 348.809 121.98L347.394 125.814L336.099 121.633L338.863 114.167C339.98 111.152 341.029 108.734 344.842 107.896C350.003 106.769 353.99 108.012 355.78 103.147C356.994 99.8615 355.395 96.615 352.314 95.4783C347.384 93.6575 343.465 96.8751 341.626 99.5436L333.365 90.9505H333.355ZM345.247 138.348C343.648 142.663 338.863 144.86 334.482 143.241C330.168 141.642 327.973 136.854 329.562 132.539C331.179 128.155 335.965 125.959 340.278 127.548C344.659 129.167 346.855 133.955 345.237 138.338L345.247 138.348Z" fill="url(#paint10_linear_43_140)"/>
<path d="M145.037 108.522C145.105 108.339 149.206 102.126 157.449 105.179C162.995 107.231 166.605 112.684 164.67 117.905C163.332 121.528 159.808 122.751 155.706 122.953C154.242 123.04 153.828 124.061 153.376 125.285L152.605 127.356L146.51 125.102L148.003 121.075C148.6 119.447 149.168 118.146 151.228 117.684C154.011 117.077 156.158 117.742 157.131 115.121C157.786 113.349 156.919 111.595 155.263 110.979C152.605 109.996 150.487 111.73 149.495 113.175L145.037 108.541V108.522ZM151.45 134.099C150.593 136.431 148.003 137.616 145.644 136.739C143.314 135.882 142.129 133.29 142.986 130.968C143.862 128.599 146.443 127.414 148.773 128.281C151.142 129.157 152.326 131.739 151.45 134.109V134.099Z" fill="#B6B6CE"/>
<path d="M321.733 33.3418C321.704 33.1106 322.59 24.344 332.893 23.005C339.826 22.109 346.604 25.8372 347.452 32.3495C348.039 36.8773 345.025 40.0949 340.837 42.5611C339.354 43.457 339.479 44.7576 339.672 46.2797L340.009 48.8711L332.383 49.8633L331.728 44.825C331.468 42.7923 331.343 41.1161 333.249 39.5073C335.83 37.3397 338.449 36.858 338.025 33.573C337.736 31.3573 335.868 29.9989 333.788 30.2687C330.467 30.7022 329.205 33.6886 328.955 35.7405L321.733 33.3418ZM342.512 56.5972C342.888 59.5065 340.837 62.175 337.881 62.5604C334.973 62.9361 332.306 60.8841 331.93 57.9748C331.545 55.0173 333.596 52.3488 336.513 51.9731C339.469 51.5878 342.137 53.6397 342.512 56.5972Z" fill="#E5E5EC"/>
<path d="M287.06 289.98L307.878 333.716L307.329 340.113C310.333 341.703 317.853 331.26 317.853 331.26L315.677 328.582C315.677 328.582 309.187 294.816 303.814 289.99H287.06V289.98Z" fill="#D36762"/>
<path d="M307.386 338.62C307.386 338.62 305.933 340.961 304.151 343.282C302.37 345.604 300.531 348.205 301.33 349.419C302.12 350.633 310.429 344.862 316.457 340.749C322.475 336.645 321.666 336.52 321.55 335.855C321.444 335.181 317.535 330.634 317.535 330.634C317.535 330.634 313.048 336.462 310.4 338.206C307.743 339.94 307.396 338.62 307.396 338.62H307.386Z" fill="#282E4E"/>
<path d="M305.817 289.98L288.851 285.568L293.733 341.173L288.851 345.999H304.431L303.651 341.558C304.026 336.52 306.713 299.748 305.807 289.99L305.817 289.98Z" fill="#FF897F"/>
<path d="M306.915 208.991C306.915 208.991 313.741 224.722 314.772 231.553C315.802 238.383 305.673 248.527 305.673 248.527L306.915 209V208.991Z" fill="#FF897F"/>
<path d="M286.367 174.849L285.269 178.096C285.269 178.096 282.65 178.096 282.371 178.924C282.092 179.753 283.748 181.13 283.748 181.13C283.748 181.13 281.986 188.095 283.95 191.303C285.915 194.511 297.71 192.748 297.71 192.748C297.71 192.748 302.572 192.228 305.259 186.853C307.945 181.468 309.909 177.335 308.879 171.95C308.272 168.809 302.64 166.622 297.171 166.786C292.25 166.93 287.946 170.177 286.367 174.84V174.849Z" fill="#FF897F"/>
<path d="M290.787 192.122L290.055 199.27L301.956 197.613L302.9 190.09L290.787 192.122Z" fill="#FF897F"/>
<path d="M297.748 196.737C297.748 196.737 288.303 196.717 284.48 205.484C279.252 217.458 284.307 234.943 284.307 234.943L283.344 244.423C283.344 244.423 285 248.527 310.208 244.182L306.925 235.078C306.925 235.078 309.919 213.981 309.168 207.334C308.167 198.384 297.748 196.746 297.748 196.746V196.737Z" fill="#BDBED1"/>
<path d="M291.172 168.674C291.172 168.674 290.941 173.038 293.531 176.814C296.121 180.591 297.565 181.159 297.565 181.159C297.565 181.159 296.949 183.336 297.305 183.953C297.671 184.569 299.115 181.728 300.926 182.142C302.736 182.556 302.842 186.13 301.128 188.192C299.424 190.263 296.988 189.849 296.988 189.849C296.988 189.849 296.208 195.388 299.26 199.781C302.312 204.174 308.157 205.985 313.327 203.769C318.498 201.544 320.308 196.631 319.48 192.026C318.652 187.421 312.653 183.905 312.653 183.905C312.653 183.905 314.984 173.732 310.997 168.674C307.011 163.626 295.842 163.674 291.605 165.534C291.605 165.534 287.523 164.04 284.932 166.776C282.342 169.512 283.016 174.136 285.963 176.015C285.963 176.015 288.081 170.36 291.162 168.664L291.172 168.674Z" fill="#282E4E"/>
<path d="M291.249 203.644L276.507 220.994L282.872 227.863L300.926 213.711C304.113 211.216 304.527 206.534 301.831 203.519C299 200.34 294.012 200.407 291.259 203.644H291.249Z" fill="#D3D5E2"/>
<path d="M269.652 195.677C269.652 195.677 271.029 217.266 271.443 221.611C271.857 225.955 273.754 229.404 277.547 229.684C280.6 229.905 282.872 227.863 282.872 227.863L276.69 195.089L269.661 195.677H269.652Z" fill="#FF897F"/>
<path d="M272.791 186.573C272.791 186.573 272.136 186.949 271.654 187.816C271.654 187.816 270.547 188.124 269.892 189.405C269.892 189.405 269.517 189.858 268.958 191.024C268.41 192.199 269.921 196.717 269.921 196.717L276.873 196.139C276.873 196.139 278.125 193.442 278.433 192.132C278.741 190.822 277.817 189.271 277.538 188.75C277.258 188.23 276.777 188.404 276.575 188.885C276.372 189.367 276.748 191.226 276.748 191.226L276.257 191.92C276.257 191.92 275.477 191.091 275.573 189.714C275.679 188.336 277.643 184.955 276.95 184.02C276.257 183.086 274.61 186.092 274.61 186.092C274.61 186.092 273.648 186.159 272.781 186.573H272.791Z" fill="#FF897F"/>
<path d="M283.334 244.413L285.125 289.98H305.807C305.807 289.98 312.105 252.168 310.198 244.172C310.198 244.172 293.049 246.658 283.334 244.413Z" fill="url(#paint11_linear_43_140)"/>
<path d="M291.008 343.861C291.008 343.861 288.514 345.026 285.751 345.99C282.997 346.953 280.031 348.128 280.031 349.573C280.031 351.018 290.142 350.749 297.43 350.604C304.719 350.469 304.989 350.257 305.268 349.641C305.547 349.024 303.872 342.733 303.872 342.733C303.872 342.733 296.93 345.161 293.752 345.161C290.575 345.161 291.008 343.861 291.008 343.861Z" fill="#282E4E"/>
<path d="M294.956 191.843C294.956 191.843 293.261 192.951 290.671 193.221" stroke="#BA6561" stroke-width="0.963357" stroke-linecap="round" stroke-linejoin="round"/>
<path d="M270.268 195.976L274.389 195.427" stroke="#BA6561" stroke-width="0.963357" stroke-linecap="round" stroke-linejoin="round"/>
<path d="M159.336 345.999H146.761V353.427H159.336V345.999Z" fill="#FF897F"/>
<path d="M146.761 352.531C146.761 352.531 146.558 360.575 146.761 361.885C146.761 361.885 153.01 362.232 156.177 362.232C159.345 362.232 168.338 362.579 171.16 361.885C173.981 361.201 172.874 360.026 172.19 358.86C171.506 357.694 159.066 352.531 159.066 352.531C159.066 352.531 151.922 353.629 146.77 352.531H146.761Z" fill="#282E4E"/>
<path d="M140.502 246.041C140.502 246.041 140.088 256.975 140.502 272.235C140.916 287.495 144.69 348.485 144.69 348.485L161.04 349.236L167.087 246.041H140.492H140.502Z" fill="url(#paint12_linear_43_140)"/>
<path d="M157.834 161.064L158.931 164.301C158.931 164.301 161.541 164.301 161.82 165.129C162.099 165.958 160.443 167.326 160.443 167.326C160.443 167.326 162.195 174.271 160.241 177.47C158.286 180.668 146.529 178.915 146.529 178.915C146.529 178.915 141.686 178.394 139.009 173.038C136.333 167.672 134.368 163.549 135.399 158.193C136.005 155.062 141.609 152.885 147.069 153.049C151.979 153.193 156.254 156.43 157.834 161.083V161.064Z" fill="#FF897F"/>
<path d="M153.433 178.289L154.155 185.398L142.302 183.751L141.359 176.256L153.433 178.289Z" fill="#FF897F"/>
<path d="M153.597 155.293C153.597 155.293 151.777 158.318 147.752 159.898C147.752 159.898 149.158 165.572 148.061 166.208C146.963 166.844 147.03 165.331 144.835 165.129C142.64 164.927 142.428 167.74 143.121 170.283C143.805 172.826 146.491 173.443 147.454 173.24C148.417 173.038 148.686 174.204 146.77 175.919C144.845 177.633 141.763 179.387 141.763 179.387C141.763 179.387 133.098 171.41 131.586 167.335C130.074 163.26 131.586 160.996 131.586 160.996C131.586 160.996 130.488 155.707 134.811 153.02C139.144 150.332 147.935 149.715 151.508 150.062C155.08 150.409 154.733 152.336 154.733 152.336C154.733 152.336 156.245 152.471 156.929 154.397C157.612 156.324 156.168 157.865 156.168 157.865C156.168 157.865 154.618 155.929 153.597 155.284V155.293Z" fill="#282E4E"/>
<path d="M142.158 182.595C142.158 182.595 137.353 189.531 135.119 196.746C132.886 203.962 140.512 246.041 140.512 246.041H167.106C167.106 246.041 166.297 205.214 164.343 198.105C161.849 189.03 154.155 184.579 154.155 184.579L142.158 182.595Z" fill="url(#paint13_linear_43_140)"/>
<path d="M150.15 246.687L149.514 345.498" stroke="#F96786" stroke-width="0.963357" stroke-linecap="round" stroke-linejoin="round"/>
<path d="M144.507 345.498H161.589" stroke="#F96786" stroke-width="0.963357" stroke-linecap="round" stroke-linejoin="round"/>
<path d="M136.727 194.993C132.953 201.852 125.895 215.802 121.947 230.57L133.078 235.107L150.862 202.575C152.076 200.349 152.22 197.671 151.161 195.369C151.132 195.311 151.113 195.263 151.084 195.205C148.272 189.319 139.866 189.271 136.727 194.983V194.993Z" fill="url(#paint14_linear_43_140)"/>
<path d="M154.666 252.563C154.666 252.563 157.487 253.103 157.487 252.563C157.487 252.024 156.091 251.33 154.531 251.301C154.117 251.301 153.693 251.301 153.308 251.33L153.347 251.022L154.541 250.791C154.541 250.791 157.111 251.725 157.275 251.234C157.439 250.743 155.532 249.346 154.377 249.432C153.741 249.481 152.836 249.654 152.153 249.808L150.92 249.914C151.883 249.288 152.769 248.97 152.557 248.565C152.307 248.103 151.768 248.17 150.121 248.816C149.052 249.24 148.109 249.837 147.569 250.203L147.049 250.251L133.097 235.107L121.967 230.57C121.967 230.57 118.77 237.785 123.719 243.672C128.668 249.548 145.47 257.39 145.47 257.39C147.309 258.18 152.73 256.012 152.73 256.012V255.964L153.78 255.791C153.78 255.791 156.601 256.33 156.601 255.791C156.601 255.251 155.205 254.558 153.645 254.529C153.404 254.529 153.154 254.529 152.913 254.529V254.442L154.502 254.172C154.502 254.172 157.323 254.712 157.323 254.172C157.323 253.633 155.927 252.939 154.367 252.91C153.944 252.91 153.51 252.91 153.116 252.939L153.135 252.823L154.685 252.563H154.666Z" fill="#FF897F"/>
<path d="M148.484 177.45C148.484 177.45 151.171 179.512 153.549 179.377" stroke="#BA6561" stroke-width="0.963357" stroke-linecap="round" stroke-linejoin="round"/>
<path d="M147.04 250.251C147.04 250.251 148.504 253.401 148.292 254.74" stroke="#BA6561" stroke-width="0.963357" stroke-linecap="round" stroke-linejoin="round"/>
<path d="M364.986 191.776C364.986 191.776 357.466 205.368 352.141 216.1L337.813 204.367L336.908 203.326C336.687 202.652 336.35 201.852 335.83 201.216C334.751 199.877 334.511 197.016 333.817 198.452C333.452 199.203 333.75 200.638 334.126 201.833L331.141 201.631C330.476 201.409 327.761 200.542 326.114 200.667C324.227 200.812 324.68 201.544 324.786 201.679C324.872 201.804 327.366 202.112 329.138 202.767L329.09 202.902C327.963 202.575 326.22 202.151 325.036 202.238C323.149 202.382 323.601 203.114 323.707 203.249C323.804 203.384 326.692 203.731 328.464 204.501L328.435 204.579C327.328 204.28 325.854 203.962 324.815 204.039C322.927 204.184 323.38 204.916 323.486 205.051C323.572 205.166 325.912 205.465 327.665 206.081C326.769 205.946 325.806 205.86 325.075 205.966C323.197 206.226 323.698 206.939 323.813 207.064C323.9 207.16 325.633 207.276 327.26 207.623L333.981 209.964C336.119 213.788 343.687 226.543 350.841 229.79C353.007 230.772 355.983 229.616 357.475 227.757L365.842 217.343L365.005 191.766L364.986 191.776Z" fill="#FF897F"/>
<path d="M368.914 320.798L371.158 345.325L367.248 349.862C367.248 349.862 368.452 353.59 380.401 349.246L379.14 343.832C379.14 343.832 380.825 326.674 380.401 321.347L368.914 320.788V320.798Z" fill="#FF897F"/>
<path d="M397.492 320.798L402.952 345.325L403.51 350.094C403.51 350.094 408.43 355.806 415.729 352.02L410.655 343.928L408.556 320.798H397.492Z" fill="#FF897F"/>
<path d="M367.653 349.072C367.653 349.072 359.873 354.997 359.738 356.182C359.594 357.376 360.296 357.723 362.261 357.935C364.225 358.147 374.094 356.673 377.599 355.97C381.104 355.267 381.239 354.64 381.239 354.64C381.239 354.64 381.614 351.837 380.132 348.09C380.132 348.09 377.281 350.806 369.877 350.44C368.192 350.353 367.653 349.072 367.653 349.072Z" fill="#464F96"/>
<path d="M403.163 347.107C403.163 347.107 403.231 354.746 404.28 356.847C405.33 358.947 410.375 360.421 412.898 361.153C415.421 361.885 421.516 362.309 422.459 360.209C423.403 358.109 415.738 352.011 415.738 352.011C415.738 352.011 411.011 352.752 408.488 352.483C405.965 352.213 403.163 347.097 403.163 347.097V347.107Z" fill="#464F96"/>
<path d="M402.393 257.438C401.084 250.502 398.811 243.98 395.037 238.103L392.947 227.805C394.873 222.516 401.045 204.694 400.987 192.98L386.14 188.683L377.956 188.394C377.956 188.394 373.006 189.338 364.986 191.756C364.986 191.756 361.346 206.158 361.827 213.172C362.174 218.085 363.541 223.306 364.321 226.004L364.138 238.508L362.251 339.766L382.847 341.385L382.077 268.642L383.694 269.306L396.086 343.071L415.739 340.547C415.739 340.547 403.77 264.702 402.393 257.428V257.438Z" fill="url(#paint15_linear_43_140)"/>
<path d="M374.999 189.502C374.999 189.502 372.727 191.563 374.017 193.269C375.308 194.974 378.552 192.922 378.552 192.922C378.552 192.922 381.441 195.494 385.004 194.511C388.566 193.529 389.337 189.502 389.337 189.502" stroke="#F96786" stroke-width="0.963357" stroke-linecap="round" stroke-linejoin="round"/>
<path d="M401.218 192.989C401.218 192.989 394.998 199.81 394.661 206.814C394.392 212.449 405.946 224.347 409.884 229.337L394.931 242.862L394.401 242.949C394.122 242.795 393.592 242.544 392.687 242.294C391.214 241.889 389.288 242.101 389.134 242.294C388.98 242.487 389.173 242.785 389.837 242.911C390.502 243.036 391.166 243.036 391.166 243.036L391.792 243.373L389.288 243.778C388.383 243.806 386.785 243.883 385.793 244.153C384.359 244.539 382.924 245.646 383.165 246.138C383.405 246.629 385.148 245.858 385.947 245.435L388.518 245.396L388.605 245.531C387.806 245.579 386.9 245.675 386.255 245.849C384.821 246.234 383.386 247.342 383.627 247.824C383.867 248.315 385.601 247.544 386.409 247.12L389.625 247.072L389.674 247.14C388.98 247.197 388.248 247.284 387.709 247.429C386.275 247.814 384.84 248.922 385.081 249.413C385.321 249.904 387.064 249.134 387.863 248.71L390.675 248.671V248.691C390.376 248.739 390.088 248.787 389.837 248.854C388.403 249.24 386.968 250.348 387.209 250.839C387.449 251.33 389.192 250.56 389.991 250.136L391.619 250.107C391.619 250.107 396.414 250.637 398.493 247.525C401.95 245.907 417.915 235.984 419.811 232.545C422.565 227.545 401.199 192.97 401.199 192.97L401.218 192.989Z" fill="#FF897F"/>
<path d="M368.991 174.83C368.991 174.83 366.902 181.593 367.162 186.063C367.412 190.542 371.735 189.666 372.794 189.28C373.863 188.895 375.481 190.783 376.867 190.176C378.254 189.569 376.405 186.13 376.405 186.13L368.981 174.83H368.991Z" fill="#282E4E"/>
<path d="M376.116 183.866L376.357 192.296C376.357 192.296 377.195 192.941 379.602 192.98C382.009 193.018 385.581 190.696 385.581 190.696L385.129 182.209L376.126 183.866H376.116Z" fill="#FF897F"/>
<path d="M390.126 171.584C389.385 171.535 388.797 171.641 388.316 171.824C388.749 167.692 388.72 164.127 388.72 164.127L369.193 162.952C369.193 162.952 367.913 173.009 368.962 178.751C369.473 181.545 371.292 183.664 373.016 185.099C375.182 186.901 378.158 187.267 380.719 186.101C382.885 185.119 385.312 183.414 386.467 180.524C386.515 180.408 386.563 180.283 386.602 180.157C387.613 179.83 389.163 179.146 390.579 177.807C392.909 175.591 393.207 171.796 390.126 171.593V171.584Z" fill="#FF897F"/>
<path d="M375.876 167.672C379.65 169.349 384.647 168.443 384.647 168.443C384.647 168.443 383.848 170.977 384.455 173C385.061 175.032 386.275 175.225 386.275 175.225C386.275 175.225 387.748 171.901 389.674 172.219C391.609 172.537 390.945 176.304 389.471 177.884C387.998 179.464 386.506 179.454 386.506 179.454C386.506 179.454 384.522 181.872 385.119 184.29C385.119 184.29 385.485 189.492 385.572 190.706C385.572 190.706 386.332 191.602 388.268 190.562C390.193 189.521 392.716 191.554 396.154 189.377C399.591 187.19 399.158 184.001 397.309 179.522C395.46 175.042 394.767 169.589 394.767 169.589C394.767 169.589 394.632 163.154 392.822 159.859C391.002 156.565 387.806 155.312 384.099 154.561C380.391 153.81 377.59 155.216 377.59 155.216C377.59 155.216 369.732 156.131 367.142 160.832C362.53 169.185 368.558 172.489 368.558 172.489C368.558 172.489 371.129 169.291 371.803 163.694C371.803 163.694 373.324 166.545 375.885 167.682L375.876 167.672Z" fill="#282E4E"/>
<path d="M365.823 217.343C365.823 217.343 371.235 215.512 374.537 215.512C377.84 215.512 386.506 218.403 386.506 218.403" stroke="#F96786" stroke-width="0.963357" stroke-miterlimit="10"/>
<path d="M378.553 192.922C378.553 192.922 377.368 198.432 377.628 202.247" stroke="#F96786" stroke-width="0.963357" stroke-linecap="round" stroke-linejoin="round"/>
<path d="M373.844 263.411C373.844 263.411 381.306 265.318 383.694 269.316" stroke="#F96786" stroke-width="0.963357" stroke-linecap="round" stroke-linejoin="round"/>
<path d="M395.383 338.89L415.113 336.568" stroke="#F96786" stroke-width="0.963357" stroke-linecap="round" stroke-linejoin="round"/>
<path d="M362.328 335.749L382.808 337.791" stroke="#F96786" stroke-width="0.963357" stroke-linecap="round" stroke-linejoin="round"/>
<path d="M409.894 229.337C409.894 229.337 414.169 230.107 415.739 230.926" stroke="#BA6561" stroke-width="0.963357" stroke-linecap="round" stroke-linejoin="round"/>
<path d="M352.141 216.1C352.141 216.1 352.584 220.339 352.141 223.364" stroke="#BA6561" stroke-width="0.963357" stroke-linecap="round" stroke-linejoin="round"/>
<path d="M376.415 186.766C376.415 186.766 380.295 187.566 384.493 183.519" stroke="#BA6561" stroke-width="0.963357" stroke-linecap="round" stroke-linejoin="round"/>
<path d="M54.8643 320.124L57.31 342.917L54.8643 354.804C54.8643 354.804 54.2481 355.662 59.6402 356.519C65.0323 357.377 67.969 355.17 67.969 355.17L66.0048 342.55L66.8617 322.089L54.8547 320.124H54.8643Z" fill="#FF897F"/>
<path d="M86.4657 320.981L91.2415 341.693L92.7147 351.49L112.925 351.982L101.284 341.693L97.4906 319.141L86.4657 320.981Z" fill="#FF897F"/>
<path d="M56.4627 347.647C56.4627 347.647 57.4641 351.047 60.9208 351.413C66.2069 351.982 66.8424 347.868 66.8424 347.868C66.8424 347.868 68.7104 355.286 68.7682 357.001C68.8259 358.716 65.0515 360.922 61.2674 360.922C57.0019 360.922 54.9221 358.716 53.94 357.242C52.9578 355.768 56.453 347.637 56.453 347.637L56.4627 347.647Z" fill="#464F96"/>
<path d="M91.6652 344.506C91.6652 344.506 91.2897 348.793 91.6652 350.633C92.0407 352.473 92.4644 353.639 92.8977 353.754C93.331 353.88 100.427 354.197 102.141 354.284C103.855 354.371 111.818 354.689 114.206 354.284C116.594 353.88 117.027 353.754 117.393 352.714C117.759 351.673 106.686 346.462 106.686 346.462C106.686 346.462 104.105 347.473 100.061 347.647C96.0174 347.81 93.3695 344.39 91.6652 344.506Z" fill="#464F96"/>
<path d="M67.8631 171.343V179.406L58.0707 178.809L56.5204 167.451L67.8631 171.343Z" fill="#FF897F"/>
<path d="M120.792 180.793C119.569 180.369 117.865 180.495 116.748 180.658L116.719 180.215C118.472 179.888 121.87 179.358 120.128 178.828C118.125 178.221 114.947 179.117 114.947 179.117L111.934 178.298C112.781 177.084 113.484 174.503 112.781 174.859C112.117 175.187 109.565 178.684 108.852 179.608L95.69 193.856L76.837 176.901C74.8246 179.05 74.2373 189.464 77.2125 194.415C80.1878 199.357 95.9692 205.224 95.9692 205.224C102.247 205.051 110.037 190.417 112.328 185.812L115.516 185.745C115.516 185.745 116.411 185.697 117.008 185.639C118.828 185.456 121.206 185.196 119.743 184.618C118.924 184.29 117.875 184.223 116.931 184.242L116.912 183.828C118.654 183.568 122.188 183.182 120.455 182.576C119.377 182.2 117.923 182.258 116.835 182.383L116.815 182.103C118.298 181.843 122.67 181.448 120.773 180.784L120.792 180.793Z" fill="#FF897F"/>
<path d="M70.9539 148.318C70.9539 148.318 74.4587 160.409 74.7476 165.784C75.0364 171.16 71.6086 174.281 67.1024 174.281C62.5962 174.281 58.7543 171.555 58.7543 171.555L53.1312 161.218C51.0417 157.364 52.2549 152.528 55.9524 150.178C57.4737 149.205 59.1683 148.28 60.9304 147.586C66.8809 145.265 70.9442 148.309 70.9442 148.309L70.9539 148.318Z" fill="#FF897F"/>
<path d="M54.9125 161.757C54.9125 161.757 51.7928 160.669 50.7722 162.624C49.7515 164.589 52.1779 167.643 54.3251 168.655C56.4723 169.666 59.6209 168.655 59.6209 168.655L54.9029 161.757H54.9125Z" fill="#FF897F"/>
<path d="M88.3818 230.541C88.3818 230.541 83.5867 233.45 73.2744 234.028C68.9607 234.269 64.2812 234.163 60.2949 233.942C54.7391 233.653 50.5314 233.152 50.5314 233.152L52.1105 213.393L44.2053 181.025C47.6909 178.26 57.6759 175.919 57.6759 175.919C57.6759 175.919 62.1917 179.396 66.6017 178.973C68.1038 178.818 67.8727 175.466 67.8727 175.466C67.8727 175.466 73.544 175.11 76.1052 176.092C76.4904 176.237 76.8081 176.41 77.0199 176.622C83.3941 182.98 81.6995 212.372 81.6995 212.372L88.3818 230.531V230.541Z" fill="url(#paint16_linear_43_140)"/>
<path d="M69.5577 147.923C69.5577 147.923 69.1244 150.698 66.1781 153.694C63.2413 156.69 60.5164 156.854 60.5164 156.854C60.5164 156.854 59.7557 158.491 58.5521 159.301L57.3582 160.12C57.3582 160.12 58.2825 162.73 57.8492 164.638C57.8492 164.638 55.4902 161.208 53.266 161.449C51.0417 161.69 50.1174 164.272 51.5906 166.304C53.0638 168.337 56.0102 169.127 56.7034 169.098L57.4737 174.483C57.4737 174.483 55.9331 174.984 53.603 174.156C53.5645 174.146 53.5259 174.127 53.4874 174.107C52.3994 173.616 51.1477 175.196 48.856 175.254C46.5644 175.312 46.1311 173.896 44.2246 174.493C42.3181 175.09 38.6689 175.745 37.4171 171.882C36.1654 168.019 39.2177 166.873 38.2356 164.58C37.2534 162.287 38.5052 160.553 40.5272 159.455C42.5396 158.366 40.5272 152.644 43.5217 150.361C46.5163 148.068 47.2769 147.856 47.9317 146.44C48.5864 145.024 51.3787 143.608 53.9015 143.714C57.0501 143.839 56.3568 140.689 60.786 141.122C66.0144 141.633 67.0446 143.829 67.0446 143.829C67.0446 143.829 69.4037 143.762 72.0516 146.064C76.3556 149.802 75.5372 154.84 73.5151 158.347C73.5151 158.347 70.8576 149.33 69.5481 147.914L69.5577 147.923Z" fill="#282E4E"/>
<path d="M44.5712 180.331L27.2299 198.827L12.9121 185.754C12.1225 184.897 9.28205 181.631 8.59841 181.361C7.86663 181.072 8.79098 183.587 9.7346 184.724L6.79784 185.793C6.79784 185.793 3.55297 185.167 1.60797 185.947C-0.0770493 186.621 3.35077 186.853 5.12245 187.036V187.479C4.00552 187.411 2.30124 187.431 1.11691 187.96C-0.712543 188.779 3.67814 188.808 5.18022 188.933V189.213C4.08255 189.174 2.63824 189.242 1.58872 189.714C-0.086678 190.465 3.46631 190.552 5.22836 190.658V191.072C4.30401 191.13 3.26411 191.294 2.47456 191.679C1.06877 192.382 3.45668 192.44 5.28614 192.469C5.88312 192.469 6.78821 192.45 6.78821 192.45L9.97531 192.247C12.6521 196.64 21.6646 210.551 27.9232 210.195C27.9232 210.195 46.2948 200.455 48.8464 195.272C51.398 190.089 46.7666 182.325 44.5809 180.35L44.5712 180.331Z" fill="#FF897F"/>
<path d="M102.392 320.74L97.6254 321.52L85.7339 323.437L73.2359 257.756L71.522 255.55V323.437H52.1683C52.1683 323.437 47.0266 275.655 47.0266 261.185C47.0266 246.716 50.8106 229.51 50.8106 229.51C69.7984 235.338 87.4671 228.084 87.4671 228.084C87.6404 228.537 87.8137 229.009 87.9967 229.52C94.9582 249.779 102.382 320.74 102.382 320.74H102.392Z" fill="url(#paint17_linear_43_140)"/>
<path d="M27.23 198.827C27.23 198.827 30.0993 201.891 31.3318 203.952" stroke="#BA6561" stroke-width="0.963357" stroke-linecap="round" stroke-linejoin="round"/>
<path d="M95.6999 193.847C95.6999 193.847 94.8618 196.804 95.6999 199.415" stroke="#BA6561" stroke-width="0.963357" stroke-linecap="round" stroke-linejoin="round"/>
<path d="M67.863 174.291C67.863 174.291 61.0555 175.225 57.8492 169.917" stroke="#BA6561" stroke-width="0.963357" stroke-linecap="round" stroke-linejoin="round"/>
<path d="M52.929 212.931L56.5205 214.145" stroke="#F96786" stroke-width="0.963357" stroke-linecap="round" stroke-linejoin="round"/>
<path d="M48.5864 242.207C48.5864 242.207 54.9509 240.897 55.9042 233.508" stroke="#7954B3" stroke-width="0.963357" stroke-miterlimit="10"/>
<path d="M50.2811 232.159C50.2811 232.159 70.4628 238.681 88.3818 230.541" stroke="#7954B3" stroke-width="0.963357" stroke-miterlimit="10"/>
<path d="M71.522 255.55C71.522 255.55 72.9759 251.128 76.6926 249.066" stroke="#7954B3" stroke-width="0.963357" stroke-miterlimit="10"/>
<path d="M84.5785 232.044C84.5785 232.044 86.7738 238.71 90.8179 240.117" stroke="#7954B3" stroke-width="0.963357" stroke-miterlimit="10"/>
<path d="M51.5905 317.85C51.5905 317.85 58.5809 318.9 71.5219 317.85" stroke="#7954B3" stroke-width="0.963357" stroke-miterlimit="10"/>
<path d="M101.737 314.786C101.737 314.786 92.7918 317.031 84.5881 317.416" stroke="#7954B3" stroke-width="0.963357" stroke-miterlimit="10"/>
<path d="M55.0762 176.603C55.0762 176.603 59.3128 180.678 65.4463 180.678C71.5798 180.678 69.6251 175.408 69.6251 175.408" stroke="#F96786" stroke-width="0.963357" stroke-linecap="round" stroke-linejoin="round"/>
<path d="M60.189 200.966C60.189 200.966 69.2688 199.174 77.1066 198.827" stroke="#F96786" stroke-width="0.963357" stroke-linecap="round" stroke-linejoin="round"/>
</g>
<defs>
<linearGradient id="paint0_linear_43_140" x1="14.6838" y1="271.859" x2="32.1333" y2="297.12" gradientUnits="userSpaceOnUse">
<stop stop-color="#DC911B"/>
<stop offset="1" stop-color="#E7B142"/>
</linearGradient>
<linearGradient id="paint1_linear_43_140" x1="40.5272" y1="300.586" x2="57.4545" y2="300.586" gradientUnits="userSpaceOnUse">
<stop stop-color="#DC911B"/>
<stop offset="1" stop-color="#E7B142"/>
</linearGradient>
<linearGradient id="paint2_linear_43_140" x1="27.9425" y1="298.621" x2="22.9306" y2="325.084" gradientUnits="userSpaceOnUse">
<stop stop-color="#DC911B"/>
<stop offset="1" stop-color="#E7B142"/>
</linearGradient>
<linearGradient id="paint3_linear_43_140" x1="44.5039" y1="285.857" x2="47.1737" y2="331.838" gradientUnits="userSpaceOnUse">
<stop stop-color="#FFE9EC"/>
<stop offset="1" stop-color="#A7A3D1"/>
</linearGradient>
<linearGradient id="paint4_linear_43_140" x1="262.43" y1="350.845" x2="260.425" y2="321.973" gradientUnits="userSpaceOnUse">
<stop stop-color="#DC911B"/>
<stop offset="1" stop-color="#E7B142"/>
</linearGradient>
<linearGradient id="paint5_linear_43_140" x1="402.305" y1="244.715" x2="406.748" y2="329.478" gradientUnits="userSpaceOnUse">
<stop stop-color="#FFE9EC"/>
<stop offset="1" stop-color="#A7A3D1"/>
</linearGradient>
<linearGradient id="paint6_linear_43_140" x1="407.179" y1="292.957" x2="420.606" y2="303.778" gradientUnits="userSpaceOnUse">
<stop stop-color="#FFE9EC"/>
<stop offset="1" stop-color="#A7A3D1"/>
</linearGradient>
<linearGradient id="paint7_linear_43_140" x1="349.878" y1="326.424" x2="427.389" y2="326.424" gradientUnits="userSpaceOnUse">
<stop stop-color="#DC911B"/>
<stop offset="1" stop-color="#E7B142"/>
</linearGradient>
<linearGradient id="paint8_linear_43_140" x1="150.718" y1="170.899" x2="322.453" y2="82.5628" gradientUnits="userSpaceOnUse">
<stop stop-color="#7954B3"/>
<stop offset="0.05" stop-color="#7053AE"/>
<stop offset="0.21" stop-color="#5950A0"/>
<stop offset="0.37" stop-color="#4A4F98"/>
<stop offset="0.5" stop-color="#464F96"/>
<stop offset="0.64" stop-color="#494F98"/>
<stop offset="0.78" stop-color="#55509E"/>
<stop offset="0.92" stop-color="#6952AA"/>
<stop offset="1" stop-color="#7954B3"/>
</linearGradient>
<linearGradient id="paint9_linear_43_140" x1="104.365" y1="132.105" x2="90.4581" y2="78.6326" gradientUnits="userSpaceOnUse">
<stop stop-color="#DC911B"/>
<stop offset="1" stop-color="#E7B142"/>
</linearGradient>
<linearGradient id="paint10_linear_43_140" x1="329.051" y1="113.483" x2="370.715" y2="113.483" gradientUnits="userSpaceOnUse">
<stop stop-color="#DC911B"/>
<stop offset="1" stop-color="#E7B142"/>
</linearGradient>
<linearGradient id="paint11_linear_43_140" x1="304.267" y1="280.067" x2="288.222" y2="248.524" gradientUnits="userSpaceOnUse">
<stop offset="0.15" stop-color="#464F96"/>
<stop offset="0.4" stop-color="#494F98"/>
<stop offset="0.63" stop-color="#55509E"/>
<stop offset="0.85" stop-color="#6752A9"/>
<stop offset="1" stop-color="#7954B3"/>
</linearGradient>
<linearGradient id="paint12_linear_43_140" x1="188.828" y1="267.466" x2="132.161" y2="312.35" gradientUnits="userSpaceOnUse">
<stop stop-color="#CD536C"/>
<stop offset="1" stop-color="#8B1F5A"/>
</linearGradient>
<linearGradient id="paint13_linear_43_140" x1="164.468" y1="272.023" x2="145.211" y2="192.223" gradientUnits="userSpaceOnUse">
<stop offset="0.15" stop-color="#464F96"/>
<stop offset="0.4" stop-color="#494F98"/>
<stop offset="0.63" stop-color="#55509E"/>
<stop offset="0.85" stop-color="#6752A9"/>
<stop offset="1" stop-color="#7954B3"/>
</linearGradient>
<linearGradient id="paint14_linear_43_140" x1="133.637" y1="218.827" x2="147.118" y2="192.099" gradientUnits="userSpaceOnUse">
<stop stop-color="#464F96"/>
<stop offset="0.28" stop-color="#4A4F98"/>
<stop offset="0.56" stop-color="#56509F"/>
<stop offset="0.84" stop-color="#6A52AA"/>
<stop offset="1" stop-color="#7954B3"/>
</linearGradient>
<linearGradient id="paint15_linear_43_140" x1="361.789" y1="265.742" x2="415.739" y2="265.742" gradientUnits="userSpaceOnUse">
<stop stop-color="#CD536C"/>
<stop offset="1" stop-color="#8B1F5A"/>
</linearGradient>
<linearGradient id="paint16_linear_43_140" x1="57.4255" y1="178.423" x2="74.5519" y2="243.118" gradientUnits="userSpaceOnUse">
<stop stop-color="#CD536C"/>
<stop offset="1" stop-color="#8B1F5A"/>
</linearGradient>
<linearGradient id="paint17_linear_43_140" x1="57.3004" y1="227.786" x2="83.2357" y2="325.801" gradientUnits="userSpaceOnUse">
<stop stop-color="#464F96"/>
<stop offset="0.28" stop-color="#4A4F98"/>
<stop offset="0.56" stop-color="#56509F"/>
<stop offset="0.84" stop-color="#6A52AA"/>
<stop offset="1" stop-color="#7954B3"/>
</linearGradient>
<clipPath id="clip0_43_140">
<rect width="445" height="377" fill="white"/>
</clipPath>
</defs>
</svg>
